<?xml version="1.0" standalone="no"?>
<!DOCTYPE svg PUBLIC "-//W3C//DTD SVG 20010904//EN"
 "http://www.w3.org/TR/2001/REC-SVG-20010904/DTD/svg10.dtd">
<svg version="1.0" xmlns="http://www.w3.org/2000/svg"
 width="300.000000pt" height="171.000000pt" viewBox="0 0 300.000000 171.000000"
 preserveAspectRatio="xMidYMid meet">
<metadata>
Created by potrace 1.10, written by Peter Selinger 2001-2011
</metadata>
<g transform="translate(0.000000,171.000000) scale(0.100000,-0.100000)"
fill="#000000" stroke="none">
<path d="M1525 1201 c-48 -29 -68 -58 -69 -98 -1 -31 4 -40 31 -58 18 -11 33
-32 37 -48 3 -16 17 -34 34 -44 l28 -16 -28 -55 c-34 -66 -35 -85 -7 -113 18
-18 28 -20 63 -15 22 4 59 18 82 31 52 31 177 162 204 215 26 51 24 103 -5
109 -20 3 -20 3 -1 -18 18 -20 18 -21 -9 -77 -50 -102 -194 -234 -272 -250
-41 -8 -65 23 -53 67 14 47 50 99 69 99 10 0 41 7 70 16 62 18 136 84 128 115
-4 14 1 21 19 25 13 3 24 10 24 15 0 14 -27 10 -44 -6 -8 -8 -24 -15 -36 -15
-38 0 -90 -28 -144 -80 -29 -27 -58 -50 -64 -50 -6 0 -19 11 -27 24 -34 51 8
146 78 180 74 34 117 12 79 -42 -21 -29 -62 -53 -122 -71 l-35 -11 44 4 c78 8
156 81 138 130 -5 11 -19 16 -50 16 -66 0 -107 -32 -163 -126 -10 -17 -11 -17
-32 4 -12 12 -22 30 -22 41 0 32 43 85 78 95 17 5 32 13 32 17 0 14 -23 10
-55 -10z m285 -146 c0 -35 -87 -95 -160 -110 l-35 -7 35 37 c70 73 160 118
160 80z"/>
<path d="M700 1151 c-37 -12 -128 -59 -135 -71 -10 -16 2 -12 59 20 65 37 142
49 171 27 19 -15 18 -16 -18 -22 -80 -15 -168 -112 -137 -151 18 -21 82 -14
119 14 36 26 71 80 71 108 0 17 6 24 19 24 20 0 81 -20 81 -26 0 -3 -17 -19
-37 -37 -21 -18 -80 -72 -131 -122 -131 -126 -137 -130 -204 -111 -29 8 -64
13 -78 11 -14 -2 -28 -4 -32 -4 -5 -1 -8 -9 -8 -20 0 -27 50 -45 102 -37 24 4
84 10 134 15 106 9 168 35 227 94 50 50 69 97 65 161 -3 51 -3 51 33 63 20 6
46 9 58 6 28 -7 28 -47 -1 -67 -12 -9 -19 -19 -15 -22 11 -12 57 38 57 61 0
11 -5 26 -12 33 -17 17 -77 15 -111 -3 -26 -13 -31 -13 -50 0 -12 8 -37 15
-55 15 -22 0 -45 9 -64 25 -30 25 -62 30 -108 16z m110 -93 c-22 -77 -160
-145 -160 -79 0 35 101 109 152 111 14 0 15 -5 8 -32z m141 -76 c-16 -57 -97
-144 -161 -171 -48 -21 -150 -40 -150 -29 0 3 18 17 40 32 22 15 91 76 153
137 97 94 113 107 120 91 5 -11 4 -36 -2 -60z m-378 -201 c15 -15 -54 -24 -86
-12 -15 6 -27 16 -27 22 0 14 98 5 113 -10z"/>
<path d="M1936 970 c-78 -63 -156 -152 -156 -178 0 -11 7 -13 30 -9 16 4 32 2
35 -3 8 -13 62 5 99 33 51 38 63 42 34 10 -34 -35 -35 -43 -6 -43 12 0 18 3
15 7 -4 3 3 17 15 30 16 17 19 26 11 34 -8 8 -27 2 -71 -25 -72 -44 -99 -46
-54 -5 19 17 31 33 28 37 -4 3 -21 -8 -39 -25 -33 -32 -98 -58 -82 -33 19 31
151 161 193 190 l47 32 -45 -44 c-25 -24 -65 -61 -90 -82 l-45 -38 49 33 c61
42 146 118 146 130 0 24 -46 3 -114 -51z"/>
<path d="M1031 859 c-13 -5 -39 -23 -58 -39 -49 -44 -76 -40 -33 5 23 24 29
35 18 35 -19 0 -71 -66 -63 -80 4 -6 19 -4 41 5 18 7 34 10 34 4 0 -13 44 -11
58 3 9 9 12 9 12 0 0 -23 48 -12 99 23 56 39 65 36 24 -7 -38 -40 -9 -35 40 7
51 44 86 48 39 4 -40 -37 -33 -54 14 -34 18 7 34 10 34 4 0 -13 44 -11 58 3 9
9 12 9 12 0 0 -7 9 -12 20 -12 25 0 84 29 76 37 -3 3 -17 -2 -30 -11 -42 -27
-52 -18 -18 17 18 18 32 35 32 38 0 3 -19 4 -43 4 -32 -1 -54 -11 -91 -38 -57
-45 -81 -48 -41 -7 25 26 26 30 11 36 -10 4 -28 2 -42 -4 -15 -7 -24 -8 -24
-2 0 18 -22 11 -76 -25 -29 -19 -58 -35 -65 -35 -7 0 2 16 21 35 21 22 28 35
19 35 -7 0 -23 2 -34 5 -11 2 -31 0 -44 -6z m38 -25 c-17 -21 -69 -47 -77 -39
-11 10 47 55 70 55 17 0 19 -2 7 -16z m320 0 c-17 -21 -69 -47 -77 -39 -11 10
47 55 70 55 17 0 19 -2 7 -16z"/>
<path d="M2037 830 c-20 -22 -34 -40 -29 -40 4 0 13 5 20 12 9 9 12 9 12 -1 0
-8 7 -11 20 -8 11 3 23 1 26 -4 12 -20 71 -9 110 21 48 36 78 41 46 7 -38 -41
-28 -56 24 -37 15 6 35 8 43 4 19 -8 53 -5 64 5 10 10 57 2 57 -10 0 -5 9 -9
19 -9 25 0 116 39 108 46 -3 3 -15 0 -27 -6 -20 -11 -21 -10 -14 26 l7 36 -53
-35 c-56 -38 -78 -40 -57 -6 10 16 9 21 -3 29 -20 13 -49 3 -85 -29 -30 -27
-84 -55 -92 -48 -2 2 8 12 22 21 29 19 31 31 9 53 -14 14 -18 13 -42 -10 -44
-40 -122 -73 -122 -51 0 11 50 54 63 54 7 -1 1 -7 -13 -15 -30 -17 -21 -20 15
-3 14 6 25 17 25 25 0 23 -38 14 -73 -17 -19 -16 -43 -30 -53 -30 -15 0 -13 5
11 30 19 19 24 30 14 30 -8 0 -31 -18 -52 -40z m352 -2 c-20 -38 -59 -53 -59
-24 0 17 37 46 58 46 10 0 10 -5 1 -22z m96 -18 c-9 -16 -22 -30 -31 -30 -11
0 -12 4 -4 20 8 16 36 38 48 40 1 0 -4 -13 -13 -30z"/>
</g>
</svg>
